<svg width="150" height="150" viewBox="0 0 150 150" fill="none" xmlns="http://www.w3.org/2000/svg">
<path d="M0 75C0 33.5788 33.5788 0 75 0C116.421 0 150 33.5788 150 75C150 116.421 116.421 150 75 150C33.5788 150 0 116.421 0 75Z" fill="#333333"/>
<path d="M60 120C68.2844 120 75 113.284 75 105V89.9995H60C51.7156 89.9995 45 96.7154 45 105C45 113.284 51.7156 120 60 120Z" fill="#0ACF83"/>
<path d="M45 75C45 66.7156 51.7156 60 60 60H75V90H60C51.7156 90 45 83.2841 45 75Z" fill="#A259FF"/>
<path d="M45 45.0003C45 36.7159 51.7156 30.0002 60 30.0002H75V60.0003H60C51.7156 60.0003 45 53.2844 45 45.0003Z" fill="#F24E1E"/>
<path d="M75 30.0002H90C98.2844 30.0002 105 36.7159 105 45.0003C105 53.2844 98.2844 60.0003 90 60.0003H75V30.0002Z" fill="#FF7262"/>
<path d="M105 75C105 83.2841 98.2844 90 90 90C81.7156 90 75 83.2841 75 75C75 66.7156 81.7156 60 90 60C98.2844 60 105 66.7156 105 75Z" fill="#1ABCFE"/>
</svg>
