<svg width="150" height="150" viewBox="0 0 150 150" fill="none" xmlns="http://www.w3.org/2000/svg">
<path d="M89.0671 59.2829C80.0964 59.2829 75.6386 63.9657 75.6386 70.7086C75.6386 75.0493 77.8089 78.1243 80.6824 79.5317C79.275 80.8219 78.1031 81.9504 77.0472 83.0637C75.9902 84.1793 75.3457 85.3571 75.3457 86.6485C75.3457 88.2329 75.9902 89.7012 77.9261 90.5192C75.8742 92.4575 74.7 93.8637 74.7 96.504C74.7 101.136 78.7464 103.835 89.3613 103.835C99.566 103.835 105.487 100.025 105.487 93.2801C105.487 85.4836 99.5074 85.1895 89.3613 84.5426L83.6144 84.1911L85.5504 81.0833C86.6039 81.3762 88.3066 81.6106 90.1851 81.6106C97.5726 81.6106 102.675 77.7997 102.675 71.2887C102.675 68.5911 101.343 66.7149 100.288 65.3649L105.469 64.9547V59.7657H94.4636C93.116 59.7657 91.589 59.2829 89.0671 59.2829ZM91.7062 92.6942C94.5234 92.87 96.7523 92.9872 96.7523 94.8669C96.7523 98.0297 92.1175 98.2676 88.7179 98.2676C84.6117 98.2676 81.6211 97.5622 81.6211 95.2172C81.6211 94.043 82.3828 93.0469 83.1468 92.1094L91.7062 92.6942ZM89.4222 75.4536C85.5504 75.4536 83.9672 73.4579 83.9672 70.5856C83.9672 66.7735 86.3707 65.1891 89.5968 65.1891C92.939 65.1891 94.9336 67.0079 94.9336 70.4672C94.9336 73.5188 92.7047 75.4536 89.4222 75.4536ZM116.218 54.709C119.619 54.709 121.555 52.7731 121.555 49.4286C121.555 46.0887 119.619 44.2688 116.218 44.2688C112.875 44.2688 110.939 46.0887 110.939 49.4286C110.939 52.7719 112.875 54.709 116.218 54.709ZM120.703 83.7364V59.7657H109.297L108.653 64.3313L111.778 65.3555C112.366 65.5301 112.5 65.8512 112.5 66.4958V83.7364C112.5 84.6176 112.005 84.7934 111.184 84.9118L107.812 85.3219V90.2344H125.391V85.3219L122.02 84.9118C121.138 84.7934 120.703 84.6774 120.703 83.7364ZM146.974 82.5176C145.566 83.045 143.89 83.454 142.246 83.454C139.08 83.454 138.281 82.1063 138.281 78.6458V64.4532H146.484V58.5938H138.705C138.236 58.5938 138.281 58.5903 138.281 58.1801V50.3907H132.664C132.02 56.25 128.906 58.8235 124.219 59.4118V64.4532H128.91C129.38 64.4532 128.906 64.8668 128.906 65.2172V80.5817C128.906 87.211 131.782 90.0247 138.759 90.0247C142.104 90.0247 145.916 88.9102 148.439 87.6797L146.974 82.5176ZM34.8492 45.4758C33.3058 43.9313 30.8004 43.9313 29.2558 45.4758L23.6883 51.0434L30.7511 58.1063C32.3929 57.552 34.275 57.9235 35.584 59.2325C36.8988 60.5485 37.2679 62.4469 36.6996 64.0946L43.507 70.902C45.1547 70.3348 47.0543 70.7016 48.3691 72.0188C50.209 73.8563 50.209 76.8352 48.3691 78.6739C46.5304 80.5137 43.5527 80.5137 41.7129 78.6739C40.3301 77.2899 39.8097 75.259 40.5117 73.5551L33.9843 67.2071V83.9145C33.9843 84.136 35.0332 84.4313 35.407 84.804C37.2445 86.6415 37.3336 89.6204 35.4949 91.4614C33.6562 93.2989 30.7207 93.2989 28.8832 91.4614C27.0457 89.6204 27.0679 86.6426 28.9066 84.804C29.3613 84.3504 29.2968 84.0071 30.4687 83.7774V66.9153C29.2968 66.6856 29.3824 66.3446 28.9289 65.8887C27.5367 64.4965 27.2015 62.454 27.9152 60.7442L20.9519 53.7797L2.56638 72.1653C1.02068 73.711 1.02068 76.2165 2.56638 77.7598L29.3812 104.573C30.9246 106.117 33.4289 106.117 34.9746 104.573L61.664 77.8829C63.2074 76.3383 63.2074 73.8329 61.664 72.2883L34.8492 45.4758Z" fill="#F34F29"/>
</svg>
