<svg width="150" height="150" viewBox="0 0 150 150" fill="none" xmlns="http://www.w3.org/2000/svg">
<path d="M0 0H150V150H0V0Z" fill="#F7DF1E"/>
<path d="M39.4405 125.351L50.919 118.404C53.1339 122.33 55.1483 125.653 59.9806 125.653C64.6124 125.653 67.5333 123.841 67.5333 116.793V68.8647H81.6292V116.992C81.6292 131.592 73.071 138.238 60.5847 138.238C49.3083 138.238 42.7628 132.398 39.4399 125.35L39.4405 125.351ZM89.2856 123.84L100.763 117.195C103.785 122.129 107.712 125.754 114.659 125.754C120.5 125.754 124.224 122.834 124.224 118.806C124.224 113.973 120.398 112.261 113.954 109.443L110.43 107.931C100.26 103.603 93.5144 98.1651 93.5144 86.6866C93.5144 76.1139 101.569 68.0585 114.156 68.0585C123.117 68.0585 129.561 71.1803 134.192 79.336L123.217 86.3848C120.8 82.0553 118.183 80.3438 114.155 80.3438C110.027 80.3438 107.409 82.9618 107.409 86.3848C107.409 90.6135 110.027 92.3262 116.068 94.9442L119.591 96.4542C131.574 101.59 138.32 106.825 138.32 118.605C138.32 131.293 128.352 138.24 114.96 138.24C101.871 138.24 93.413 131.997 89.2851 123.841" fill="black"/>
</svg>
