<svg width="152" height="150" viewBox="0 0 152 150" fill="none" xmlns="http://www.w3.org/2000/svg">
<g clip-path="url(#clip0_11_7)">
<path d="M69.0929 1.90415C73.2217 -0.215537 78.5995 -0.225112 82.7248 1.90415C103.479 12.4222 124.239 22.9238 144.989 33.4483C148.892 35.4201 151.503 39.3159 151.463 43.3494V106.63C151.492 110.831 148.623 114.82 144.506 116.747C123.82 127.207 103.145 137.68 82.4632 148.14C78.249 150.301 72.7633 150.135 68.6807 147.796C62.4792 144.572 56.2669 141.363 50.0648 138.142C48.7975 137.464 47.3688 136.925 46.4739 135.823C47.265 134.867 48.6794 134.747 49.8288 134.33C52.4174 133.591 54.795 132.406 57.1731 131.256C57.7745 130.887 58.5087 131.029 59.0851 131.359C64.3882 134.086 69.6444 136.893 74.9653 139.594C76.1004 140.181 77.2497 139.401 78.2199 138.916C98.5189 128.626 118.843 118.375 139.138 108.082C139.89 107.757 140.306 107.041 140.245 106.303C140.259 85.4276 140.248 64.5489 140.252 43.6739C140.338 42.8356 139.797 42.0648 138.952 41.7217C118.338 31.3095 97.7349 20.8813 77.1246 10.4664C76.7675 10.2462 76.3445 10.1281 75.9112 10.1275C75.4778 10.1269 75.0544 10.2439 74.6966 10.4632C54.0863 20.8813 33.4866 31.3191 12.8763 41.7308C12.0342 42.0744 11.469 42.8324 11.5692 43.6739C11.5728 64.5489 11.5692 85.4276 11.5692 106.306C11.5335 106.666 11.6218 107.028 11.8222 107.342C12.0226 107.656 12.3255 107.908 12.6901 108.063C18.1901 110.86 23.6971 113.638 29.2007 116.426C32.3011 117.922 36.1079 118.812 39.5239 117.665C42.5384 116.695 44.6514 113.936 44.5939 111.065C44.6224 90.3122 44.5797 69.5558 44.6153 48.8058C44.5399 47.8845 45.5143 47.1233 46.513 47.21C49.1557 47.1941 51.8019 47.1781 54.4445 47.2164C55.5476 47.1941 56.3067 48.1861 56.1703 49.1143C56.1596 69.9989 56.1987 90.884 56.1525 111.769C56.1596 117.335 53.6101 123.391 47.8699 126.114C40.7984 129.4 32.058 128.703 25.0718 125.553C19.0239 122.845 13.2523 119.65 7.31171 116.749C3.18348 114.833 0.329117 110.828 0.358176 106.631V43.3494C0.314884 39.2324 3.02928 35.2659 7.05373 33.3228C27.7358 22.8542 48.4143 12.3776 69.0929 1.90415Z" fill="#8CC84B"/>
<path d="M87.1358 45.7392C96.1561 45.2185 105.813 45.4307 113.93 49.4164C120.214 52.4706 123.699 58.8807 123.809 65.1429C123.634 65.9876 122.649 66.4536 121.75 66.3956C119.133 66.3924 116.516 66.4275 113.898 66.3796C112.788 66.4179 112.143 65.4998 112.004 64.6195C111.252 61.6233 109.43 58.6557 106.285 57.2105C101.459 55.0429 95.8619 55.152 90.5986 55.1972C86.7562 55.3802 82.6244 55.6786 79.3692 57.7052C76.87 59.2403 76.1109 62.3392 77.0029 64.835C77.8438 66.627 80.1502 67.2052 82.0373 67.7381C92.9079 70.2881 104.427 70.0344 115.09 73.3903C119.505 74.7583 123.824 77.4179 125.335 81.5637C127.311 87.12 126.445 93.7615 122.037 98.2222C118.463 101.893 113.257 103.891 108.065 104.976C101.158 106.357 93.9897 106.392 86.975 105.779C80.3791 105.105 73.5152 103.55 68.4232 99.5195C64.069 96.1285 61.9423 90.845 62.1535 85.7456C62.2039 84.8844 63.1599 84.2839 64.0797 84.3546C66.7152 84.3355 69.3507 84.3291 71.9863 84.3578C73.0389 84.2903 73.8194 85.1062 73.8734 85.9961C74.3597 88.8509 75.5558 91.8472 78.3313 93.5397C83.6878 96.6392 90.4088 96.4269 96.5422 96.5136C101.623 96.3115 107.327 96.2503 111.474 93.2381C113.662 91.52 114.31 88.6456 113.719 86.1727C113.078 84.0849 110.643 83.1121 108.552 82.4759C97.8208 79.4312 86.1726 80.536 75.5452 77.0929C71.2307 75.7254 67.0586 73.1397 65.401 69.1642C63.0881 63.5376 64.1479 56.578 69.0174 52.2679C73.7654 47.9807 80.6193 46.3297 87.1358 45.7387V45.7392Z" fill="#8CC84B"/>
</g>
<defs>
<clipPath id="clip0_11_7">
<rect width="151.854" height="150" fill="white"/>
</clipPath>
</defs>
</svg>
