<svg width="72" height="80" viewBox="0 0 72 80" fill="none" xmlns="http://www.w3.org/2000/svg">
<g clip-path="url(#clip0_306_18)">
<mask id="mask0_306_18" style="mask-type:alpha" maskUnits="userSpaceOnUse" x="0" y="7" width="72" height="73">
<path d="M36.0995 80C55.8902 80 71.9336 63.6782 71.9336 43.5443C71.9336 23.4104 55.8902 7.08859 36.0995 7.08859C16.3089 7.08859 0.265442 23.4104 0.265442 43.5443C0.265442 63.6782 16.3089 80 36.0995 80Z" fill="white"/>
</mask>
<g mask="url(#mask0_306_18)">
<path d="M36.0995 80C55.8902 80 71.9336 63.6782 71.9336 43.5443C71.9336 23.4104 55.8902 7.08859 36.0995 7.08859C16.3089 7.08859 0.265442 23.4104 0.265442 43.5443C0.265442 63.6782 16.3089 80 36.0995 80Z" fill="#7510F7"/>
<path d="M72.0814 7.08859H0.265442V80H72.0814V7.08859Z" fill="#7510F7"/>
</g>
<mask id="mask1_306_18" style="mask-type:alpha" maskUnits="userSpaceOnUse" x="-4" y="-6" width="80" height="86">
<path d="M-3.31799 43.5443V-5.06329H75.517V43.5443H71.9336C71.9336 63.6782 55.8901 80 36.0995 80C16.3089 80 0.265417 63.6782 0.265417 43.5443H-3.31799Z" fill="white"/>
</mask>
<g mask="url(#mask1_306_18)">
<mask id="mask2_306_18" style="mask-type:alpha" maskUnits="userSpaceOnUse" x="6" y="5" width="60" height="75">
<path d="M36.0995 5.87341C45.3352 5.87341 52.8221 13.4902 52.8221 22.8861L52.8224 24.7593C54.5171 25.0487 55.8083 26.5482 55.8083 28.3544V32.6076C55.8083 34.4463 54.4702 35.9671 52.7307 36.2171C52.1137 42.2339 48.4139 47.318 43.2666 49.8057L43.2664 55.3924H44.4608C56.3352 55.3924 65.9613 65.1855 65.9613 77.2658V80H6.23779V77.2658C6.23779 65.1855 15.8639 55.3924 27.7382 55.3924H28.9327L28.9328 49.8059C23.7854 47.3182 20.0854 42.2341 19.4681 36.2171C17.7288 35.9671 16.3908 34.4463 16.3908 32.6076V28.3544C16.3908 26.548 17.6822 25.0485 19.377 24.7593L19.377 22.8861C19.377 13.4902 26.8639 5.87341 36.0995 5.87341Z" fill="white"/>
</mask>
<g mask="url(#mask2_306_18)">
<path d="M36.0995 5.87341C45.3352 5.87341 52.8221 13.4902 52.8221 22.8861L52.8224 24.7593C54.5171 25.0487 55.8083 26.5482 55.8083 28.3544V32.6076C55.8083 34.4463 54.4702 35.9671 52.7307 36.2171C52.1137 42.2339 48.4139 47.318 43.2666 49.8057L43.2664 55.3924H44.4608C56.3352 55.3924 65.9613 65.1855 65.9613 77.2658V80H6.23779V77.2658C6.23779 65.1855 15.8639 55.3924 27.7382 55.3924H28.9327L28.9328 49.8059C23.7854 47.3182 20.0854 42.2341 19.4681 36.2171C17.7288 35.9671 16.3908 34.4463 16.3908 32.6076V28.3544C16.3908 26.548 17.6822 25.0485 19.377 24.7593L19.377 22.8861C19.377 13.4902 26.8639 5.87341 36.0995 5.87341Z" fill="#D0C6AC"/>
<path d="M75.7771 5.87341H-3.31799V80.2548H75.7771V5.87341Z" fill="#FFDBB4"/>
<path fill-rule="evenodd" clip-rule="evenodd" d="M19.377 34.4304C19.377 43.8262 26.8639 51.443 36.0995 51.443C45.3352 51.443 52.8221 43.8262 52.8221 34.4304V36.8608C52.8221 46.2566 45.3352 53.8734 36.0995 53.8734C26.8639 53.8734 19.377 46.2566 19.377 36.8608V34.4304Z" fill="black" fill-opacity="0.1"/>
</g>
<mask id="mask3_306_18" style="mask-type:alpha" maskUnits="userSpaceOnUse" x="6" y="50" width="60" height="30">
<path d="M43.2668 50.5532C48.6717 51.1686 52.8221 52.8599 52.8221 57.2386L52.8202 57.107C60.5421 60.4253 65.9613 68.2016 65.9613 77.2657V80H6.23779V77.2657C6.23779 68.2016 11.6569 60.4253 19.3789 57.107C19.4608 52.8258 23.582 51.1623 28.9326 50.5532L28.9327 56.3038C28.9327 60.3306 32.1414 63.5949 36.0995 63.5949C40.0577 63.5949 43.2664 60.3306 43.2664 56.3038L43.2668 50.5532Z" fill="white"/>
</mask>
<g mask="url(#mask3_306_18)">
<path d="M43.2668 50.5532C48.6717 51.1686 52.8221 52.8599 52.8221 57.2386L52.8202 57.107C60.5421 60.4253 65.9613 68.2016 65.9613 77.2657V80H6.23779V77.2657C6.23779 68.2016 11.6569 60.4253 19.3789 57.107C19.4608 52.8258 23.582 51.1623 28.9326 50.5532L28.9327 56.3038C28.9327 60.3306 32.1414 63.5949 36.0995 63.5949C40.0577 63.5949 43.2664 60.3306 43.2664 56.3038L43.2668 50.5532Z" fill="#B7C1DB"/>
<path d="M75.8126 46.5823H-3.31799V80H75.8126V46.5823Z" fill="#293347"/>
<path fill-rule="evenodd" clip-rule="evenodd" d="M27.1409 65.3384L27.141 80H25.0507L25.0504 64.248C25.7085 64.646 26.4083 65.0108 27.1409 65.3384ZM47.1489 64.2479L47.1484 76.5063C47.1484 77.0936 46.6805 77.5696 46.1032 77.5696C45.526 77.5696 45.0581 77.0936 45.0581 76.5063L45.0585 65.3383C45.7911 65.0107 46.4908 64.6458 47.1489 64.2479Z" fill="#F4F4F4"/>
<path fill-rule="evenodd" clip-rule="evenodd" d="M48.3539 50.4478C52.8488 51.3126 55.9576 53.0356 55.9576 56.3973C55.9576 62.3858 46.092 67.2405 36.0995 67.2405C26.1071 67.2405 16.2415 62.3858 16.2415 56.3973C16.2415 53.0356 19.3502 51.3126 23.8451 50.4478C21.1319 51.4652 19.3769 53.1761 19.3769 56.0234C19.3769 62.2184 27.6848 67.2405 36.0995 67.2405C44.5142 67.2405 52.8221 62.2184 52.8221 56.0234C52.8221 53.2356 51.1398 51.5372 48.5224 50.5122L48.3539 50.4478Z" fill="black" fill-opacity="0.16"/>
</g>
<mask id="mask4_306_18" style="mask-type:alpha" maskUnits="userSpaceOnUse" x="30" y="39" width="12" height="7">
<path d="M30.4609 40.2414C30.7768 43.125 33.1808 45.3671 36.0995 45.3671C39.0272 45.3671 41.437 43.1111 41.7409 40.2147C41.7653 39.9816 41.5095 39.5949 41.1887 39.5949C36.7411 39.5949 33.3337 39.5949 31.0489 39.5949C30.7263 39.5949 30.4293 39.9529 30.4609 40.2414Z" fill="white"/>
</mask>
<g mask="url(#mask4_306_18)">
<path d="M30.4609 40.2414C30.7768 43.125 33.1808 45.3671 36.0995 45.3671C39.0272 45.3671 41.437 43.1111 41.7409 40.2147C41.7653 39.9816 41.5095 39.5949 41.1887 39.5949C36.7411 39.5949 33.3337 39.5949 31.0489 39.5949C30.7263 39.5949 30.4293 39.9529 30.4609 40.2414Z" fill="black" fill-opacity="0.7"/>
<path fill-rule="evenodd" clip-rule="evenodd" d="M33.1133 36.2531H39.3843C40.2089 36.2531 40.8774 36.9332 40.8774 37.7721V39.5949C40.8774 40.4338 40.2089 41.1139 39.3843 41.1139H33.1133C32.2887 41.1139 31.6202 40.4338 31.6202 39.5949V37.7721C31.6202 36.9332 32.2887 36.2531 33.1133 36.2531Z" fill="white"/>
<path d="M34.6064 49.6202C36.4205 49.6202 37.8912 48.1241 37.8912 46.2784C37.8912 44.4328 36.4205 42.9367 34.6064 42.9367C32.7922 42.9367 31.3216 44.4328 31.3216 46.2784C31.3216 48.1241 32.7922 49.6202 34.6064 49.6202Z" fill="#FF4F6D"/>
<path d="M37.5925 49.6202C39.4067 49.6202 40.8773 48.1241 40.8773 46.2784C40.8773 44.4328 39.4067 42.9367 37.5925 42.9367C35.7784 42.9367 34.3077 44.4328 34.3077 46.2784C34.3077 48.1241 35.7784 49.6202 37.5925 49.6202Z" fill="#FF4F6D"/>
</g>
<path fill-rule="evenodd" clip-rule="evenodd" d="M32.5161 34.4304C32.5161 35.7726 34.1205 36.8607 36.0995 36.8607C38.0786 36.8607 39.6829 35.7726 39.6829 34.4304" fill="black" fill-opacity="0.16"/>
<path fill-rule="evenodd" clip-rule="evenodd" d="M24.2026 29.0979C24.754 27.9438 25.9956 27.1392 27.4389 27.1392C28.877 27.1392 30.1149 27.9382 30.6692 29.0857C30.8339 29.4266 30.5996 29.7055 30.3632 29.4988C29.6313 28.8586 28.5919 28.4589 27.4389 28.4589C26.3219 28.4589 25.3116 28.834 24.5841 29.4395C24.3181 29.6608 24.0413 29.4354 24.2026 29.0979Z" fill="black" fill-opacity="0.6"/>
<path fill-rule="evenodd" clip-rule="evenodd" d="M41.5224 29.0979C42.0738 27.9438 43.3154 27.1392 44.7587 27.1392C46.1968 27.1392 47.4347 27.9382 47.989 29.0857C48.1537 29.4266 47.9194 29.7055 47.683 29.4988C46.9511 28.8586 45.9117 28.4589 44.7587 28.4589C43.6417 28.4589 42.6314 28.834 41.9039 29.4395C41.6379 29.6608 41.3612 29.4354 41.5224 29.0979Z" fill="black" fill-opacity="0.6"/>
<path fill-rule="evenodd" clip-rule="evenodd" d="M27.3044 21.716C25.5704 21.7974 22.7669 23.0794 22.8391 24.8584C22.8415 24.9166 22.9256 24.9422 22.9667 24.8974C23.7893 23.9983 29.6304 23.0899 31.6878 23.5713C31.8761 23.6154 32.0191 23.4265 31.8999 23.2899C30.878 22.1209 28.858 21.6414 27.3044 21.716Z" fill="black" fill-opacity="0.6"/>
<path fill-rule="evenodd" clip-rule="evenodd" d="M45.1932 21.716C46.9273 21.7974 49.7308 23.0794 49.6585 24.8584C49.6561 24.9166 49.5721 24.9422 49.531 24.8974C48.7083 23.9983 42.8672 23.0899 40.8099 23.5713C40.6216 23.6154 40.4786 23.4265 40.5978 23.2899C41.6197 22.1209 43.6397 21.6414 45.1932 21.716Z" fill="black" fill-opacity="0.6"/>
<mask id="mask5_306_18" style="mask-type:alpha" maskUnits="userSpaceOnUse" x="-4" y="-6" width="80" height="86">
<path d="M75.517 -5.06329H-3.31799V80H75.517V-5.06329Z" fill="white"/>
</mask>
<g mask="url(#mask5_306_18)">
<mask id="mask6_306_18" style="mask-type:alpha" maskUnits="userSpaceOnUse" x="18" y="0" width="36" height="26">
<path d="M50.1461 7.06442C49.322 6.20771 48.3651 5.48055 47.4345 4.75135C47.2291 4.59061 47.0204 4.43374 46.8197 4.26688C46.774 4.22896 46.3065 3.88832 46.2506 3.76295C46.1159 3.46134 46.1939 3.69618 46.2125 3.33627C46.236 2.88116 47.1482 1.59573 46.4675 1.30096C46.1681 1.1713 45.6339 1.51633 45.3466 1.63029C44.7848 1.85331 44.2161 2.04351 43.6353 2.20751C43.9136 1.64344 44.4441 0.514269 43.4469 0.816488C42.67 1.05194 41.9461 1.6573 41.1654 1.94209C41.4237 1.51134 42.4567 0.176579 41.5233 0.101967C41.2329 0.0787274 40.3877 0.633016 40.0749 0.751254C39.1383 1.10546 38.1815 1.33439 37.1981 1.5147C33.8542 2.1278 29.9438 1.95299 26.85 3.5018C24.4649 4.6958 22.1097 6.54846 20.7318 8.9076C19.4038 11.1815 18.9071 13.6701 18.6291 16.2758C18.4252 18.1881 18.4086 20.1648 18.504 22.084C18.5351 22.7128 18.6047 25.6114 19.5026 24.7336C19.95 24.2962 19.9467 22.5301 20.0593 21.9323C20.2836 20.7429 20.4994 19.5482 20.8732 18.3968C21.5321 16.3678 22.3092 15.4217 23.9505 14.0242C25.0037 13.1276 25.7433 11.9156 26.7512 11.011C27.204 10.6047 26.8585 10.647 27.5864 10.7003C28.0755 10.7361 28.5667 10.7498 29.0567 10.7628C30.1902 10.7928 31.3256 10.7851 32.4594 10.7892C34.7429 10.7976 37.0157 10.8304 39.297 10.7088C40.3108 10.6548 41.3273 10.6255 42.3384 10.5301C42.9033 10.4768 43.9055 10.1085 44.3704 10.3899C44.7959 10.6474 45.2378 11.4881 45.5433 11.8324C46.2651 12.6461 47.1258 13.2676 47.9699 13.9348C49.73 15.3261 50.6187 15.8582 51.1532 18.0324C51.6858 20.1985 51.5365 22.208 52.1957 24.3397C52.3116 24.7145 52.6184 25.3605 52.9965 24.7814C53.0667 24.6739 53.0486 24.0827 53.0486 23.7426C53.0486 22.3695 53.3903 21.3392 53.3861 19.9572C53.3693 15.7551 53.2357 10.2757 50.1461 7.06442Z" fill="white"/>
</mask>
<g mask="url(#mask6_306_18)">
<path d="M50.1461 7.06442C49.322 6.20771 48.3651 5.48055 47.4345 4.75135C47.2291 4.59061 47.0204 4.43374 46.8197 4.26688C46.774 4.22896 46.3065 3.88832 46.2506 3.76295C46.1159 3.46134 46.1939 3.69618 46.2125 3.33627C46.236 2.88116 47.1482 1.59573 46.4675 1.30096C46.1681 1.1713 45.6339 1.51633 45.3466 1.63029C44.7848 1.85331 44.2161 2.04351 43.6353 2.20751C43.9136 1.64344 44.4441 0.514269 43.4469 0.816488C42.67 1.05194 41.9461 1.6573 41.1654 1.94209C41.4237 1.51134 42.4567 0.176579 41.5233 0.101967C41.2329 0.0787274 40.3877 0.633016 40.0749 0.751254C39.1383 1.10546 38.1815 1.33439 37.1981 1.5147C33.8542 2.1278 29.9438 1.95299 26.85 3.5018C24.4649 4.6958 22.1097 6.54846 20.7318 8.9076C19.4038 11.1815 18.9071 13.6701 18.6291 16.2758C18.4252 18.1881 18.4086 20.1648 18.504 22.084C18.5351 22.7128 18.6047 25.6114 19.5026 24.7336C19.95 24.2962 19.9467 22.5301 20.0593 21.9323C20.2836 20.7429 20.4994 19.5482 20.8732 18.3968C21.5321 16.3678 22.3092 15.4217 23.9505 14.0242C25.0037 13.1276 25.7433 11.9156 26.7512 11.011C27.204 10.6047 26.8585 10.647 27.5864 10.7003C28.0755 10.7361 28.5667 10.7498 29.0567 10.7628C30.1902 10.7928 31.3256 10.7851 32.4594 10.7892C34.7429 10.7976 37.0157 10.8304 39.297 10.7088C40.3108 10.6548 41.3273 10.6255 42.3384 10.5301C42.9033 10.4768 43.9055 10.1085 44.3704 10.3899C44.7959 10.6474 45.2378 11.4881 45.5433 11.8324C46.2651 12.6461 47.1258 13.2676 47.9699 13.9348C49.73 15.3261 50.6187 15.8582 51.1532 18.0324C51.6858 20.1985 51.5365 22.208 52.1957 24.3397C52.3116 24.7145 52.6184 25.3605 52.9965 24.7814C53.0667 24.6739 53.0486 24.0827 53.0486 23.7426C53.0486 22.3695 53.3903 21.3392 53.3861 19.9572C53.3693 15.7551 53.2357 10.2757 50.1461 7.06442Z" fill="#1F3140"/>
<path d="M75.9838 -5.06329H-3.3512V80.1372H75.9838V-5.06329Z" fill="#4A312C"/>
</g>
</g>
</g>
</g>
<defs>
<clipPath id="clip0_306_18">
<rect width="72" height="80" fill="white"/>
</clipPath>
</defs>
</svg>
