<svg width="152" height="150" viewBox="0 0 152 150" fill="none" xmlns="http://www.w3.org/2000/svg">
<g clip-path="url(#clip0_10_4)">
<path d="M75.2841 0.0424805C36.8268 0.0424832 39.2283 16.5808 39.2283 16.5808L39.2712 33.7144H75.97V38.8587H24.6945C24.6945 38.8587 0.0856934 36.0911 0.0856934 74.5713C0.0856906 113.052 21.5648 111.687 21.5648 111.687H34.3837V93.8306C34.3837 93.8306 33.6927 72.5306 55.5198 72.5306H91.9186C91.9186 72.5306 112.369 72.8584 112.369 52.9312V19.982C112.369 19.982 115.474 0.0424805 75.2841 0.0424805ZM55.0482 11.5641C58.6995 11.564 61.6506 14.4905 61.6506 18.1114C61.6506 21.7322 58.6995 24.6587 55.0482 24.6587C51.397 24.6587 48.4459 21.7322 48.4459 18.1114C48.4459 14.4905 51.397 11.5641 55.0482 11.5641Z" fill="url(#paint0_linear_10_4)"/>
<path d="M76.3762 149.486C114.833 149.486 112.432 132.948 112.432 132.948L112.389 115.814H75.6902V110.67H126.966C126.966 110.67 151.575 113.437 151.575 74.9571C151.575 36.4768 130.095 37.8414 130.095 37.8414H117.277V55.6977C117.277 55.6977 117.968 76.9978 96.1404 76.9978H59.7416C59.7416 76.9978 39.2915 76.67 39.2915 96.5972V129.546C39.2915 129.546 36.1865 149.486 76.3762 149.486ZM96.612 137.964C92.9607 137.964 90.0096 135.038 90.0096 131.417C90.0096 127.796 92.9607 124.87 96.612 124.87C100.263 124.87 103.214 127.796 103.214 131.417C103.214 135.038 100.263 137.964 96.612 137.964Z" fill="url(#paint1_linear_10_4)"/>
</g>
<defs>
<linearGradient id="paint0_linear_10_4" x1="14.6441" y1="13.4845" x2="89.0942" y2="87.8116" gradientUnits="userSpaceOnUse">
<stop stop-color="#387EB8"/>
<stop offset="1" stop-color="#366994"/>
</linearGradient>
<linearGradient id="paint1_linear_10_4" x1="60.7234" y1="60.8122" x2="140.706" y2="137.058" gradientUnits="userSpaceOnUse">
<stop stop-color="#FFE052"/>
<stop offset="1" stop-color="#FFC331"/>
</linearGradient>
<clipPath id="clip0_10_4">
<rect width="151.854" height="150" fill="white"/>
</clipPath>
</defs>
</svg>
